<svg width="90" height="44" viewBox="0 0 90 44" fill="none" xmlns="http://www.w3.org/2000/svg">
<path d="M41.9783 34.6191C41.1947 35.5592 40.2249 36.3266 39.1302 36.8731C38.079 37.3836 36.9243 37.6448 35.7559 37.6364C33.7228 37.6364 32.0551 36.8706 30.7527 35.3389C29.4504 33.8071 28.7989 31.8188 28.798 29.3739C28.798 26.3105 29.6802 23.7667 31.4445 21.7427C33.2089 19.7187 35.4116 18.7071 38.0527 18.7079C39.1968 18.6889 40.3281 18.951 41.3475 19.4713C42.318 19.981 43.1944 20.7677 43.9766 21.8311L44.3797 19.2696H50.3036L48.1336 32.9803C47.957 34.0967 47.3882 35.1134 46.5295 35.8476C45.6707 36.5817 44.5784 36.9851 43.449 36.9851H41.6822L41.9783 34.6191ZM35.0877 28.7575C35.0877 29.8915 35.4323 30.8047 36.1217 31.4971C36.811 32.1895 37.7234 32.5344 38.859 32.532C40.0974 32.532 41.1285 32.0496 41.9522 31.0849C42.7759 30.1202 43.1877 28.9127 43.1877 27.4624C43.1877 26.3632 42.8431 25.4716 42.1538 24.7875C41.4644 24.1034 40.5649 23.7609 39.455 23.7601C38.8616 23.7479 38.273 23.8689 37.7326 24.1144C37.1921 24.3599 36.7135 24.7235 36.3319 25.1785C35.5024 26.1266 35.0877 27.3196 35.0877 28.7575Z" fill="#F04935"/>
<path d="M64.452 36.9852L67.2553 19.2672H73.2501L72.8096 22.2908C73.3588 21.1692 74.0949 20.3153 75.0182 19.7292C75.9414 19.1431 77.0164 18.8525 78.2433 18.8575C78.3896 18.8585 78.5358 18.8672 78.6812 18.8836C78.8455 18.9011 79.1018 18.9397 79.4527 18.9982L78.2084 24.5584C77.7995 24.4655 77.4312 24.3953 77.1035 24.348C76.7903 24.3027 76.4743 24.2794 76.1579 24.2783C74.9535 24.2783 74.0037 24.6556 73.3086 25.4102C72.6135 26.1649 72.1373 27.3313 71.8802 28.9095L71.1834 33.3751C71.026 34.3847 70.5131 35.3046 69.7373 35.9687C68.9614 36.6328 67.9739 36.9974 66.953 36.9965L64.452 36.9852Z" fill="#F04935"/>
<path d="M79.7151 36.9853L82.5023 19.2672H88.7944L86.6344 32.9144C86.4546 34.0493 85.8761 35.0828 85.0031 35.829C84.13 36.5752 83.0195 36.9852 81.8714 36.9853H79.7151Z" fill="#F04935"/>
<path d="M82.975 13.9875C82.9763 13.1039 83.3277 12.2568 83.9521 11.6321C84.5765 11.0074 85.423 10.6561 86.3058 10.6551C87.2747 10.6551 88.081 10.9706 88.7247 11.6015C89.0413 11.911 89.2905 12.2828 89.4565 12.6934C89.6224 13.1041 89.7016 13.5447 89.689 13.9875C89.6931 14.4333 89.6084 14.8755 89.4399 15.2882C89.2713 15.7008 89.0223 16.0757 88.7073 16.391C88.3923 16.7062 88.0177 16.9555 87.6054 17.1242C87.1931 17.2929 86.7513 17.3776 86.3058 17.3735C85.8653 17.3799 85.4283 17.2947 85.0224 17.1232C84.6165 16.9517 84.2506 16.6977 83.948 16.3772C83.6335 16.0649 83.3852 15.6923 83.218 15.2817C83.0508 14.871 82.9682 14.4309 82.975 13.9875Z" fill="#F04935"/>
<path d="M62.098 18.1924H55.8855L55.72 19.2671H52.7761L52.0569 23.7937H55.0021L52.9155 36.9851H55.3579C56.4111 36.9852 57.4296 36.6088 58.2301 35.9239C59.0305 35.239 59.5603 34.2905 59.724 33.2492L61.2059 23.795H64.3787L65.0979 19.2683H61.9251L62.098 18.1924Z" fill="#F04935"/>
<path d="M62.7486 14.1279H56.5087L55.8854 18.1925H62.0967L62.7486 14.1279Z" fill="#F04935"/>
<path d="M13.668 4.09331C13.6611 3.57129 13.7605 3.05333 13.9601 2.57098C14.1597 2.08864 14.4553 1.652 14.8289 1.28766C15.1922 0.908965 15.6297 0.609335 16.1139 0.407496C16.5982 0.205657 17.1188 0.105946 17.6434 0.114593C18.8005 0.114593 19.7627 0.491502 20.53 1.24532C21.2973 1.99914 21.6809 2.94847 21.6809 4.09331C21.691 4.62548 21.5923 5.1541 21.3907 5.64666C21.1891 6.13921 20.889 6.5853 20.5089 6.95749C20.137 7.338 19.6913 7.63835 19.1991 7.84009C18.707 8.04182 18.1788 8.14067 17.6471 8.13056C17.1217 8.13883 16.6004 8.03796 16.1159 7.83434C15.6315 7.63071 15.1945 7.32875 14.8326 6.94753C14.4564 6.57477 14.1594 6.12982 13.9593 5.63936C13.7592 5.1489 13.6601 4.62303 13.668 4.09331Z" fill="#F04935"/>
<path d="M3.56732 25.5784C3.08082 25.6469 2.67893 25.7029 2.31437 25.9009C1.96095 26.0633 1.65774 26.3179 1.43661 26.638C1.21548 26.9582 1.08458 27.332 1.05768 27.7203L2.5122 38.8208L2.86183 41.624C2.875 41.8045 2.90881 41.9829 2.96262 42.1557C3.00668 42.2947 3.07082 42.4264 3.15299 42.5468C3.31772 42.7894 3.54523 42.9826 3.81119 43.1059C4.09317 43.2346 4.40038 43.2984 4.71024 43.2926C5.0201 43.2868 5.32471 43.2115 5.60166 43.0723C5.8551 42.9517 6.07046 42.7635 6.22409 42.5285C6.37773 42.2934 6.46373 42.0205 6.47263 41.7398L5.28811 30.6667L5.16369 29.4749L6.3619 29.3504L13.2699 28.6144L14.9982 28.4413C15.4818 28.4007 15.959 28.3041 16.4204 28.1537C17.2503 27.8598 17.6957 27.3803 18.0093 26.475C18.2942 25.6319 18.4286 24.3667 18.6625 23.2572L19.2722 19.8326L20.4928 12.9835L20.7989 11.2986C20.8858 10.8465 20.8896 10.3823 20.8101 9.92877C20.7867 9.76278 20.7272 9.60395 20.6358 9.46346C20.5445 9.32296 20.4234 9.20422 20.2813 9.11559C19.9876 8.93253 19.526 8.84287 19.037 8.83166C16.9878 8.80053 14.834 9.65605 13.479 11.2986C12.7836 12.1198 12.2811 13.0866 12.0083 14.1279C11.8823 14.6885 11.7897 15.2561 11.7308 15.8277L11.4944 17.5861L10.5513 24.4178C8.70357 24.8437 6.83222 25.0715 4.97207 25.3679L3.56732 25.5784Z" fill="#F04935"/>
<path d="M29.5981 9.84769H23.6544L22.9974 13.9995L22.9489 14.3034L22.5084 17.0019C21.9622 20.3642 21.3973 23.8361 20.805 27.2532C20.4318 29.4138 18.8142 30.9131 16.5746 31.1684C15.4112 31.3016 13.9505 31.4635 8.76074 31.6105L10.1555 37.5605C14.3113 37.5406 16.4651 37.1508 16.9802 37.0736C22.2708 36.2791 25.6663 33.3464 26.541 28.816C27.2876 24.9693 27.891 21.0441 28.4883 17.18C28.6873 15.8907 28.8885 14.601 29.0917 13.3109C29.1017 13.2523 29.0979 13.1975 29.1042 13.1402L29.5981 9.84769Z" fill="#F04935"/>
</svg>
