<svg width="49" height="26" viewBox="0 0 49 26" fill="none" xmlns="http://www.w3.org/2000/svg">
<path d="M22.8549 20.4567C22.4282 21.0122 21.9002 21.4657 21.3042 21.7886C20.7319 22.0903 20.1032 22.2446 19.4671 22.2397C18.3602 22.2397 17.4522 21.7871 16.7432 20.882C16.0341 19.9769 15.6794 18.802 15.6789 17.3573C15.6789 15.5471 16.1592 14.044 17.1198 12.848C18.0804 11.652 19.2796 11.0542 20.7176 11.0547C21.3405 11.0434 21.9564 11.1983 22.5114 11.5058C23.0398 11.807 23.5169 12.2718 23.9428 12.9002L24.1623 11.3866H27.3875L26.2061 19.4883C26.1099 20.148 25.8002 20.7488 25.3327 21.1826C24.8652 21.6165 24.2705 21.8548 23.6556 21.8548H22.6936L22.8549 20.4567ZM19.1033 16.993C19.1033 17.6632 19.2909 18.2028 19.6662 18.6119C20.0415 19.0211 20.5383 19.2249 21.1566 19.2234C21.8308 19.2234 22.3922 18.9384 22.8406 18.3684C23.2891 17.7983 23.5133 17.0848 23.5133 16.2277C23.5133 15.5782 23.3257 15.0514 22.9504 14.6471C22.5751 14.2429 22.0853 14.0405 21.481 14.0401C21.158 14.0328 20.8375 14.1044 20.5433 14.2494C20.249 14.3945 19.9884 14.6093 19.7807 14.8782C19.3291 15.4384 19.1033 16.1434 19.1033 16.993Z" fill="white"/>
<path d="M35.0906 21.8549L36.6168 11.3852H39.8806L39.6408 13.1718C39.9398 12.5091 40.3406 12.0045 40.8433 11.6582C41.3459 11.3118 41.9312 11.1401 42.5991 11.1431C42.6788 11.1437 42.7584 11.1488 42.8376 11.1585C42.927 11.1688 43.0666 11.1916 43.2576 11.2262L42.5802 14.5118C42.3575 14.4569 42.157 14.4154 41.9786 14.3875C41.8081 14.3607 41.6361 14.3469 41.4638 14.3463C40.808 14.3463 40.2909 14.5692 39.9125 15.0151C39.534 15.4611 39.2748 16.1503 39.1348 17.0829L38.7554 19.7217C38.6697 20.3182 38.3905 20.8618 37.9681 21.2543C37.5457 21.6467 37.008 21.8621 36.4522 21.8616L35.0906 21.8549Z" fill="white"/>
<path d="M43.4005 21.8549L44.9179 11.3852H48.3436L47.1676 19.4494C47.0697 20.12 46.7548 20.7307 46.2794 21.1717C45.8041 21.6126 45.1995 21.8549 44.5744 21.8549H43.4005Z" fill="white"/>
<path d="M45.1753 8.26535C45.176 7.74321 45.3673 7.24269 45.7072 6.87356C46.0472 6.50442 46.508 6.29679 46.9887 6.2962C47.5162 6.2962 47.9552 6.48262 48.3056 6.85545C48.478 7.03833 48.6137 7.25802 48.7041 7.50068C48.7944 7.74334 48.8375 8.0037 48.8306 8.26535C48.8329 8.52879 48.7868 8.79006 48.695 9.03392C48.6033 9.27778 48.4677 9.49932 48.2962 9.6856C48.1247 9.87188 47.9207 10.0192 47.6963 10.1188C47.4718 10.2185 47.2312 10.2686 46.9887 10.2661C46.7489 10.27 46.5109 10.2196 46.2899 10.1183C46.069 10.0169 45.8698 9.86682 45.705 9.67746C45.5338 9.49291 45.3986 9.27272 45.3076 9.03008C45.2166 8.78744 45.1716 8.52734 45.1753 8.26535Z" fill="white"/>
<path d="M33.8089 10.75H30.4265L30.3364 11.3851H28.7337L28.3421 14.0599H29.9456L28.8095 21.8548H30.1393C30.7127 21.8549 31.2672 21.6325 31.703 21.2277C32.1388 20.823 32.4273 20.2625 32.5164 19.6473L33.3232 14.0606H35.0506L35.4422 11.3858H33.7147L33.8089 10.75Z" fill="white"/>
<path d="M34.1632 8.3483H30.7659L30.4265 10.7501H33.8082L34.1632 8.3483Z" fill="white"/>
<path d="M7.44143 2.41878C7.4377 2.11031 7.49181 1.80425 7.60047 1.51922C7.70913 1.2342 7.87006 0.976187 8.07347 0.760896C8.27128 0.537121 8.50946 0.360067 8.77311 0.240799C9.03677 0.12153 9.32024 0.0626098 9.6058 0.0677194C10.2358 0.0677194 10.7597 0.290438 11.1774 0.735877C11.5952 1.18131 11.804 1.74228 11.804 2.41878C11.8095 2.73324 11.7558 3.04561 11.646 3.33667C11.5363 3.62772 11.3729 3.89132 11.1659 4.11125C10.9634 4.33609 10.7208 4.51358 10.4528 4.63278C10.1849 4.75199 9.89733 4.8104 9.60783 4.80442C9.3218 4.80931 9.03795 4.74971 8.7742 4.62939C8.51045 4.50906 8.27254 4.33063 8.0755 4.10536C7.87071 3.8851 7.70898 3.62217 7.60003 3.33236C7.49107 3.04254 7.43713 2.7318 7.44143 2.41878Z" fill="white"/>
<path d="M1.9422 15.1145C1.67733 15.155 1.45852 15.1881 1.26003 15.3051C1.06762 15.401 0.902537 15.5515 0.782143 15.7407C0.661749 15.9298 0.590484 16.1508 0.575836 16.3802L1.36774 22.9396L1.5581 24.596C1.56527 24.7027 1.58368 24.8081 1.61297 24.9102C1.63696 24.9923 1.67188 25.0702 1.71662 25.1413C1.8063 25.2846 1.93017 25.3988 2.07497 25.4717C2.22849 25.5477 2.39575 25.5854 2.56445 25.582C2.73316 25.5786 2.899 25.5341 3.04978 25.4518C3.18777 25.3805 3.30502 25.2693 3.38866 25.1305C3.47231 24.9916 3.51913 24.8303 3.52398 24.6644L2.87907 18.1212L2.81133 17.417L3.46369 17.3434L7.22474 16.9085L8.16568 16.8062C8.42895 16.7822 8.68878 16.7252 8.93997 16.6363C9.39181 16.4626 9.63433 16.1793 9.80504 15.6443C9.96017 15.1461 10.0333 14.3985 10.1607 13.7429L10.4926 11.7193L11.1572 7.67206L11.3238 6.67645C11.3712 6.40928 11.3732 6.13498 11.3299 5.86701C11.3172 5.76892 11.2848 5.67507 11.235 5.59205C11.1853 5.50903 11.1194 5.43886 11.042 5.38649C10.8821 5.27832 10.6308 5.22534 10.3646 5.21872C9.24888 5.20032 8.07626 5.70585 7.33855 6.67645C6.95997 7.16173 6.68635 7.73302 6.53783 8.34831C6.46927 8.67959 6.41882 9.01499 6.38677 9.35275L6.25806 10.3918L5.74457 14.4287C4.7386 14.6804 3.71975 14.815 2.70701 14.9901L1.9422 15.1145Z" fill="white"/>
<path d="M16.1145 5.81909H12.8785L12.5208 8.27244L12.4944 8.45198L12.2546 10.0466C11.9572 12.0334 11.6496 14.085 11.3272 16.1042C11.124 17.3809 10.2433 18.2668 9.02396 18.4177C8.39057 18.4964 7.59527 18.5921 4.76974 18.6789L5.52914 22.1948C7.79173 22.1831 8.96434 21.9527 9.2448 21.9071C12.1252 21.4376 13.9739 19.7047 14.4501 17.0276C14.8566 14.7546 15.1851 12.4352 15.5103 10.1518C15.6187 9.38996 15.7282 8.62785 15.8388 7.86551C15.8442 7.83092 15.8422 7.79854 15.8456 7.76469L16.1145 5.81909Z" fill="white"/>
</svg>
